<?xml version="1.0" encoding="UTF-8"?>
<svg id="Layer_2" data-name="Layer 2" xmlns="http://www.w3.org/2000/svg" viewBox="0 0 800 800">
  <defs>
    <style>
      .cls-1 {
        fill: #fff;
      }

      .cls-2 {
        fill: #262626;
      }
    </style>
  </defs>
  <polygon class="cls-2" points="395.59 218.27 379.22 198.4 245.27 198.4 221.89 218.27 238.26 238.15 372.21 238.15 395.59 218.27"/>
  <polygon class="cls-2" points="368.27 395.98 391.65 376.11 415.27 242.16 398.9 222.29 375.52 242.16 351.9 376.11 368.27 395.98"/>
  <polygon class="cls-1" points="319.85 557.84 336.23 577.71 359.61 557.84 383.22 423.89 366.85 404.02 343.47 423.89 319.85 557.84"/>
  <polygon class="cls-2" points="157.81 581.73 174.18 601.6 308.12 601.6 331.5 581.73 315.13 561.85 181.19 561.85 157.81 581.73"/>
  <polygon class="cls-1" points="185.13 404.02 161.74 423.89 138.13 557.84 154.5 577.71 177.88 557.84 201.5 423.89 185.13 404.02"/>
  <polygon class="cls-1" points="233.54 242.16 217.17 222.29 193.79 242.16 170.17 376.11 186.54 395.98 209.92 376.11 233.54 242.16"/>
  <polygon class="cls-1" points="213.23 380.12 189.85 400 206.22 419.88 340.16 419.88 363.55 400 347.17 380.12 213.23 380.12"/>
  <polygon class="cls-1" points="642.19 218.27 625.82 198.4 491.88 198.4 468.5 218.27 484.87 238.15 618.81 238.15 642.19 218.27"/>
  <polygon class="cls-1" points="614.87 395.98 638.26 376.11 661.87 242.16 645.5 222.29 622.12 242.16 598.5 376.11 614.87 395.98"/>
  <polygon class="cls-1" points="566.46 557.84 582.83 577.71 606.21 557.84 629.83 423.89 613.46 404.02 590.08 423.89 566.46 557.84"/>
  <polygon class="cls-1" points="404.41 581.73 420.78 601.6 554.73 601.6 578.11 581.73 561.74 561.85 427.79 561.85 404.41 581.73"/>
  <polygon class="cls-1" points="431.73 404.02 408.35 423.89 384.73 557.84 401.1 577.71 424.48 557.84 448.1 423.89 431.73 404.02"/>
  <polygon class="cls-1" points="480.15 242.16 463.77 222.29 440.39 242.16 416.78 376.11 433.15 395.98 456.53 376.11 480.15 242.16"/>
  <polygon class="cls-1" points="459.84 380.12 436.45 400 452.83 419.88 586.77 419.88 610.15 400 593.78 380.12 459.84 380.12"/>
</svg>