<?xml version="1.0" encoding="UTF-8"?>
<svg id="Layer_2" data-name="Layer 2" xmlns="http://www.w3.org/2000/svg" viewBox="0 0 800 800">
  <defs>
    <style>
      .cls-1 {
        fill: #d8d8d8;
      }
    </style>
  </defs>
  <polygon class="cls-1" points="401.82 218.27 385.45 198.4 251.51 198.4 228.13 218.27 244.5 238.15 378.44 238.15 401.82 218.27"/>
  <polygon class="cls-1" points="374.51 395.98 397.89 376.11 421.5 242.16 405.13 222.29 381.75 242.16 358.13 376.11 374.51 395.98"/>
  <polygon points="326.09 557.84 342.46 577.71 365.84 557.84 389.46 423.89 373.09 404.02 349.71 423.89 326.09 557.84"/>
  <polygon class="cls-1" points="164.04 581.73 180.41 601.6 314.36 601.6 337.74 581.73 321.37 561.85 187.42 561.85 164.04 581.73"/>
  <polygon points="191.36 404.02 167.98 423.89 144.36 557.84 160.73 577.71 184.12 557.84 207.73 423.89 191.36 404.02"/>
  <polygon points="239.78 242.16 223.4 222.29 200.02 242.16 176.41 376.11 192.78 395.98 216.16 376.11 239.78 242.16"/>
  <polygon points="219.47 380.12 196.09 400 212.46 419.88 346.4 419.88 369.78 400 353.41 380.12 219.47 380.12"/>
  <polygon points="648.43 218.27 632.06 198.4 498.12 198.4 474.73 218.27 491.11 238.15 625.05 238.15 648.43 218.27"/>
  <polygon points="621.11 395.98 644.49 376.11 668.11 242.16 651.74 222.29 628.36 242.16 604.74 376.11 621.11 395.98"/>
  <polygon points="572.7 557.84 589.07 577.71 612.45 557.84 636.07 423.89 619.69 404.02 596.31 423.89 572.7 557.84"/>
  <polygon points="410.65 581.73 427.02 601.6 560.96 601.6 584.34 581.73 567.97 561.85 434.03 561.85 410.65 581.73"/>
  <polygon points="437.97 404.02 414.59 423.89 390.97 557.84 407.34 577.71 430.72 557.84 454.34 423.89 437.97 404.02"/>
  <polygon points="486.38 242.16 470.01 222.29 446.63 242.16 423.01 376.11 439.38 395.98 462.76 376.11 486.38 242.16"/>
  <polygon points="466.07 380.12 442.69 400 459.06 419.88 593.01 419.88 616.39 400 600.02 380.12 466.07 380.12"/>
</svg>