<?xml version="1.0" encoding="UTF-8"?>
<svg id="Layer_2" data-name="Layer 2" xmlns="http://www.w3.org/2000/svg" viewBox="0 0 826 826">
  <defs>
    <style>
      .cls-1 {
        fill: #fff;
      }

      .cls-2 {
        fill: #262626;
      }
    </style>
  </defs>
  <path d="M229.9,826h366.2c139.5,0,229.9-108.9,229.9-229.9V229.9C826,108.9,735.7,0,596.1,0H229.9C90.4,0,0,108.9,0,229.9v366.2c0,121,90.3,229.9,229.9,229.9h0Z"/>
  <g>
    <polygon class="cls-2" points="408.59 231.27 392.22 211.4 258.27 211.4 234.89 231.27 251.26 251.15 385.21 251.15 408.59 231.27"/>
    <polygon class="cls-2" points="381.27 408.98 404.65 389.11 428.27 255.16 411.9 235.29 388.52 255.16 364.9 389.11 381.27 408.98"/>
    <polygon class="cls-1" points="332.85 570.84 349.23 590.71 372.61 570.84 396.22 436.89 379.85 417.02 356.47 436.89 332.85 570.84"/>
    <polygon class="cls-2" points="170.81 594.73 187.18 614.6 321.12 614.6 344.5 594.73 328.13 574.85 194.19 574.85 170.81 594.73"/>
    <polygon class="cls-1" points="198.13 417.02 174.74 436.89 151.13 570.84 167.5 590.71 190.88 570.84 214.5 436.89 198.13 417.02"/>
    <polygon class="cls-1" points="246.54 255.16 230.17 235.29 206.79 255.16 183.17 389.11 199.54 408.98 222.92 389.11 246.54 255.16"/>
    <polygon class="cls-1" points="226.23 393.12 202.85 413 219.22 432.88 353.16 432.88 376.55 413 360.17 393.12 226.23 393.12"/>
    <polygon class="cls-1" points="655.19 231.27 638.82 211.4 504.88 211.4 481.5 231.27 497.87 251.15 631.81 251.15 655.19 231.27"/>
    <polygon class="cls-1" points="627.87 408.98 651.26 389.11 674.87 255.16 658.5 235.29 635.12 255.16 611.5 389.11 627.87 408.98"/>
    <polygon class="cls-1" points="579.46 570.84 595.83 590.71 619.21 570.84 642.83 436.89 626.46 417.02 603.08 436.89 579.46 570.84"/>
    <polygon class="cls-1" points="417.41 594.73 433.78 614.6 567.73 614.6 591.11 594.73 574.74 574.85 440.79 574.85 417.41 594.73"/>
    <polygon class="cls-1" points="444.73 417.02 421.35 436.89 397.73 570.84 414.1 590.71 437.48 570.84 461.1 436.89 444.73 417.02"/>
    <polygon class="cls-1" points="493.15 255.16 476.77 235.29 453.39 255.16 429.78 389.11 446.15 408.98 469.53 389.11 493.15 255.16"/>
    <polygon class="cls-1" points="472.84 393.12 449.45 413 465.83 432.88 599.77 432.88 623.15 413 606.78 393.12 472.84 393.12"/>
  </g>
</svg>