<?xml version="1.0" encoding="UTF-8"?>
<svg id="Layer_2" data-name="Layer 2" xmlns="http://www.w3.org/2000/svg" viewBox="0 0 3435.7 800">
  <defs>
    <style>
      .cls-1 {
        fill: #d8d8d8;
      }

      .cls-2 {
        fill: #fff;
      }
    </style>
  </defs>
  <rect class="cls-2" width="3431.3" height="800" rx="50" ry="50"/>
  <g>
    <polygon class="cls-1" points="1713.44 218.27 1697.07 198.4 1563.12 198.4 1539.74 218.27 1556.11 238.15 1690.06 238.15 1713.44 218.27"/>
    <polygon class="cls-1" points="1686.12 395.98 1709.5 376.11 1733.12 242.16 1716.75 222.29 1693.37 242.16 1669.75 376.11 1686.12 395.98"/>
    <polygon points="1637.7 557.84 1654.08 577.71 1677.46 557.84 1701.07 423.89 1684.7 404.02 1661.32 423.89 1637.7 557.84"/>
    <polygon class="cls-1" points="1475.66 581.73 1492.03 601.6 1625.97 601.6 1649.35 581.73 1632.98 561.85 1499.04 561.85 1475.66 581.73"/>
    <polygon points="1502.98 404.02 1479.59 423.89 1455.98 557.84 1472.35 577.71 1495.73 557.84 1519.35 423.89 1502.98 404.02"/>
    <polygon points="1551.39 242.16 1535.02 222.29 1511.64 242.16 1488.02 376.11 1504.39 395.98 1527.77 376.11 1551.39 242.16"/>
    <polygon points="1531.08 380.12 1507.7 400 1524.07 419.88 1658.01 419.88 1681.4 400 1665.02 380.12 1531.08 380.12"/>
    <polygon points="1960.04 218.27 1943.67 198.4 1809.73 198.4 1786.35 218.27 1802.72 238.15 1936.66 238.15 1960.04 218.27"/>
    <polygon points="1932.72 395.98 1956.11 376.11 1979.72 242.16 1963.35 222.29 1939.97 242.16 1916.35 376.11 1932.72 395.98"/>
    <polygon points="1884.31 557.84 1900.68 577.71 1924.06 557.84 1947.68 423.89 1931.31 404.02 1907.93 423.89 1884.31 557.84"/>
    <polygon points="1722.26 581.73 1738.63 601.6 1872.58 601.6 1895.96 581.73 1879.59 561.85 1745.64 561.85 1722.26 581.73"/>
    <polygon points="1749.58 404.02 1726.2 423.89 1702.58 557.84 1718.95 577.71 1742.33 557.84 1765.95 423.89 1749.58 404.02"/>
    <polygon points="1798 242.16 1781.62 222.29 1758.24 242.16 1734.63 376.11 1751 395.98 1774.38 376.11 1798 242.16"/>
    <polygon points="1777.69 380.12 1754.3 400 1770.68 419.88 1904.62 419.88 1928 400 1911.63 380.12 1777.69 380.12"/>
  </g>
</svg>