<?xml version="1.0" encoding="UTF-8"?>
<svg id="Layer_2" data-name="Layer 2" xmlns="http://www.w3.org/2000/svg" viewBox="0 0 838.47 826">
  <defs>
    <style>
      .cls-1 {
        fill: #d8d8d8;
      }

      .cls-2 {
        fill: #fff;
      }
    </style>
  </defs>
  <path class="cls-2" d="M229.9,826h366.2c139.5,0,229.9-108.9,229.9-229.9V229.9C826,108.9,735.7,0,596.1,0H229.9C90.4,0,0,108.9,0,229.9v366.2c0,121,90.3,229.9,229.9,229.9h0Z"/>
  <g>
    <polygon class="cls-1" points="414.82 231.27 398.45 211.4 264.51 211.4 241.13 231.27 257.5 251.15 391.44 251.15 414.82 231.27"/>
    <polygon class="cls-1" points="387.51 408.98 410.89 389.11 434.5 255.16 418.13 235.29 394.75 255.16 371.13 389.11 387.51 408.98"/>
    <polygon points="339.09 570.84 355.46 590.71 378.84 570.84 402.46 436.89 386.09 417.02 362.71 436.89 339.09 570.84"/>
    <polygon class="cls-1" points="177.04 594.73 193.41 614.6 327.36 614.6 350.74 594.73 334.37 574.85 200.42 574.85 177.04 594.73"/>
    <polygon points="204.36 417.02 180.98 436.89 157.36 570.84 173.73 590.71 197.12 570.84 220.73 436.89 204.36 417.02"/>
    <polygon points="252.78 255.16 236.4 235.29 213.02 255.16 189.41 389.11 205.78 408.98 229.16 389.11 252.78 255.16"/>
    <polygon points="232.47 393.12 209.09 413 225.46 432.88 359.4 432.88 382.78 413 366.41 393.12 232.47 393.12"/>
    <polygon points="661.43 231.27 645.06 211.4 511.12 211.4 487.73 231.27 504.11 251.15 638.05 251.15 661.43 231.27"/>
    <polygon points="634.11 408.98 657.49 389.11 681.11 255.16 664.74 235.29 641.36 255.16 617.74 389.11 634.11 408.98"/>
    <polygon points="585.7 570.84 602.07 590.71 625.45 570.84 649.07 436.89 632.69 417.02 609.31 436.89 585.7 570.84"/>
    <polygon points="423.65 594.73 440.02 614.6 573.96 614.6 597.34 594.73 580.97 574.85 447.03 574.85 423.65 594.73"/>
    <polygon points="450.97 417.02 427.59 436.89 403.97 570.84 420.34 590.71 443.72 570.84 467.34 436.89 450.97 417.02"/>
    <polygon points="499.38 255.16 483.01 235.29 459.63 255.16 436.01 389.11 452.38 408.98 475.76 389.11 499.38 255.16"/>
    <polygon points="479.07 393.12 455.69 413 472.06 432.88 606.01 432.88 629.39 413 613.02 393.12 479.07 393.12"/>
  </g>
</svg>