<?xml version="1.0" encoding="UTF-8"?>
<svg id="Layer_2" data-name="Layer 2" xmlns="http://www.w3.org/2000/svg" viewBox="0 0 800 800.5">
  <defs>
    <style>
      .cls-1 {
        fill: #fff;
      }

      .cls-2 {
        fill: #262626;
      }
    </style>
  </defs>
  <rect width="800" height="800" rx="50" ry="50"/>
  <g>
    <polygon class="cls-2" points="395.59 218.52 379.22 198.65 245.27 198.65 221.89 218.52 238.26 238.4 372.21 238.4 395.59 218.52"/>
    <polygon class="cls-2" points="368.27 396.23 391.65 376.36 415.27 242.41 398.9 222.54 375.52 242.41 351.9 376.36 368.27 396.23"/>
    <polygon class="cls-1" points="319.85 558.09 336.23 577.96 359.61 558.09 383.22 424.14 366.85 404.27 343.47 424.14 319.85 558.09"/>
    <polygon class="cls-2" points="157.81 581.98 174.18 601.85 308.12 601.85 331.5 581.98 315.13 562.1 181.19 562.1 157.81 581.98"/>
    <polygon class="cls-1" points="185.13 404.27 161.74 424.14 138.13 558.09 154.5 577.96 177.88 558.09 201.5 424.14 185.13 404.27"/>
    <polygon class="cls-1" points="233.54 242.41 217.17 222.54 193.79 242.41 170.17 376.36 186.54 396.23 209.92 376.36 233.54 242.41"/>
    <polygon class="cls-1" points="213.23 380.37 189.85 400.25 206.22 420.13 340.16 420.13 363.55 400.25 347.17 380.37 213.23 380.37"/>
    <polygon class="cls-1" points="642.19 218.52 625.82 198.65 491.88 198.65 468.5 218.52 484.87 238.4 618.81 238.4 642.19 218.52"/>
    <polygon class="cls-1" points="614.87 396.23 638.26 376.36 661.87 242.41 645.5 222.54 622.12 242.41 598.5 376.36 614.87 396.23"/>
    <polygon class="cls-1" points="566.46 558.09 582.83 577.96 606.21 558.09 629.83 424.14 613.46 404.27 590.08 424.14 566.46 558.09"/>
    <polygon class="cls-1" points="404.41 581.98 420.78 601.85 554.73 601.85 578.11 581.98 561.74 562.1 427.79 562.1 404.41 581.98"/>
    <polygon class="cls-1" points="431.73 404.27 408.35 424.14 384.73 558.09 401.1 577.96 424.48 558.09 448.1 424.14 431.73 404.27"/>
    <polygon class="cls-1" points="480.15 242.41 463.77 222.54 440.39 242.41 416.78 376.36 433.15 396.23 456.53 376.36 480.15 242.41"/>
    <polygon class="cls-1" points="459.84 380.37 436.45 400.25 452.83 420.13 586.77 420.13 610.15 400.25 593.78 380.37 459.84 380.37"/>
  </g>
</svg>